<?xml version="1.0" encoding="utf-8"?>
<!-- Svg Vector Icons : http://www.onlinewebfonts.com/icon -->
<!DOCTYPE svg PUBLIC "-//W3C//DTD SVG 1.1//EN" "http://www.w3.org/Graphics/SVG/1.1/DTD/svg11.dtd">
<svg version="1.1" xmlns="http://www.w3.org/2000/svg" xmlns:xlink="http://www.w3.org/1999/xlink" x="0px" y="0px" viewBox="0 0 1000 1000" enable-background="new 0 0 1000 1000" xml:space="preserve">
<metadata> Svg Vector Icons : http://www.onlinewebfonts.com/icon </metadata>
<g><g transform="translate(0.000000,511.000000) scale(0.100000,-0.100000)"><path d="M4644.8,5011.4c-37.5-3.9-153.9-17.7-256.5-29.6c-1126.4-128.2-2242.9-708.2-3022.1-1570.2C683.7,2656,273.3,1766.3,123.4,712.9c-31.6-232.8-31.6-970.6,2-1213.2c207.1-1519,1045.5-2805.1,2341.6-3594.2c1215.2-737.8,2732.2-905.4,4093.3-451.7c1459.8,489.2,2623.7,1661,3105,3126.7c86.8,264.3,165.7,611.5,211.1,929.1c31.6,230.8,31.6,972.5,0,1203.3c-126.3,889.7-437.9,1663-937,2327.7c-797,1061.3-1921.4,1730-3249,1933.2C5493.1,5003.5,4794.7,5029.1,4644.8,5011.4z M7189.6,1768.3v-256.4H4999.9H2810.2v256.4v256.5h2189.7h2189.7V1768.3z M7189.6,111.3v-276.2H4999.9H2810.2v276.2v276.2h2189.7h2189.7V111.3z M7189.6-1545.8v-256.4H4999.9H2810.2v256.4v256.4h2189.7h2189.7V-1545.8z"/></g></g>
</svg>